<?xml version="1.0" encoding="UTF-8" standalone="no"?><!DOCTYPE svg PUBLIC "-//W3C//DTD SVG 1.1//EN" "http://www.w3.org/Graphics/SVG/1.1/DTD/svg11.dtd"><svg width="100%" height="100%" viewBox="0 0 459 396" version="1.1" xmlns="http://www.w3.org/2000/svg" xmlns:xlink="http://www.w3.org/1999/xlink" xml:space="preserve" xmlns:serif="http://www.serif.com/" style="fill-rule:evenodd;clip-rule:evenodd;stroke-linecap:round;"><path d="M304.167,31.25l0,87.5c0,3.449 -2.801,6.25 -6.25,6.25l-145.833,0c-3.449,0 -6.25,-2.801 -6.25,-6.25l0,-87.5c0,-3.449 2.801,-6.25 6.25,-6.25l145.833,0c3.449,0 6.25,2.801 6.25,6.25Z" style="fill:#61748a;"/><g><g><path d="M175,41.667l0,66.667" style="fill:none;fill-rule:nonzero;stroke:#718296;stroke-width:6.25px;"/><path d="M206.25,41.667l0,66.667" style="fill:none;fill-rule:nonzero;stroke:#718296;stroke-width:6.25px;"/><path d="M237.5,41.667l0,66.667" style="fill:none;fill-rule:nonzero;stroke:#718296;stroke-width:6.25px;"/><path d="M268.75,41.667l0,66.667" style="fill:none;fill-rule:nonzero;stroke:#718296;stroke-width:6.25px;"/></g><g><path d="M179.167,41.667l0,66.667" style="fill:none;fill-rule:nonzero;stroke:#4f5b69;stroke-width:8.33px;"/><path d="M210.417,41.667l0,66.667" style="fill:none;fill-rule:nonzero;stroke:#4f5b69;stroke-width:8.33px;"/><path d="M241.667,41.667l0,66.667" style="fill:none;fill-rule:nonzero;stroke:#4f5b69;stroke-width:8.33px;"/><path d="M272.917,41.667l0,66.667" style="fill:none;fill-rule:nonzero;stroke:#4f5b69;stroke-width:8.33px;"/></g></g><path d="M304.167,31.25l0,87.5c0,3.449 -2.801,6.25 -6.25,6.25l-145.833,0c-3.449,0 -6.25,-2.801 -6.25,-6.25l0,-87.5c0,-3.449 2.801,-6.25 6.25,-6.25l145.833,0c3.449,0 6.25,2.801 6.25,6.25Z" style="fill:none;stroke:#000;stroke-width:16.67px;stroke-linecap:butt;"/><path d="M225,131.25l0,87.5c0,3.449 -2.801,6.25 -6.25,6.25l-145.833,0c-3.449,0 -6.25,-2.801 -6.25,-6.25l0,-87.5c0,-3.449 2.801,-6.25 6.25,-6.25l145.833,0c3.449,0 6.25,2.801 6.25,6.25Z" style="fill:#d1525e;"/><g><g><path d="M95.833,141.667l0,66.667" style="fill:none;fill-rule:nonzero;stroke:#d65b66;stroke-width:6.25px;"/><path d="M127.083,141.667l0,66.667" style="fill:none;fill-rule:nonzero;stroke:#d65b66;stroke-width:6.25px;"/><path d="M158.333,141.667l0,66.667" style="fill:none;fill-rule:nonzero;stroke:#d65b66;stroke-width:6.25px;"/><path d="M189.583,141.667l0,66.667" style="fill:none;fill-rule:nonzero;stroke:#d65b66;stroke-width:6.25px;"/></g><g><path d="M100,141.667l0,66.667" style="fill:none;fill-rule:nonzero;stroke:#9e4c57;stroke-width:8.33px;"/><path d="M131.25,141.667l0,66.667" style="fill:none;fill-rule:nonzero;stroke:#9e4c57;stroke-width:8.33px;"/><path d="M162.5,141.667l0,66.667" style="fill:none;fill-rule:nonzero;stroke:#9e4c57;stroke-width:8.33px;"/><path d="M193.75,141.667l0,66.667" style="fill:none;fill-rule:nonzero;stroke:#9e4c57;stroke-width:8.33px;"/></g></g><path d="M225,131.25l0,87.5c0,3.449 -2.801,6.25 -6.25,6.25l-145.833,0c-3.449,0 -6.25,-2.801 -6.25,-6.25l0,-87.5c0,-3.449 2.801,-6.25 6.25,-6.25l145.833,0c3.449,0 6.25,2.801 6.25,6.25Z" style="fill:none;stroke:#000;stroke-width:16.67px;stroke-linecap:butt;"/><path d="M383.333,131.25l0,87.5c0,3.449 -2.801,6.25 -6.25,6.25l-145.833,0c-3.449,0 -6.25,-2.801 -6.25,-6.25l0,-87.5c0,-3.449 2.801,-6.25 6.25,-6.25l145.833,0c3.449,0 6.25,2.801 6.25,6.25Z" style="fill:#53a447;"/><g><g><path d="M254.167,141.667l0,66.667" style="fill:none;fill-rule:nonzero;stroke:#69ae5f;stroke-width:6.25px;"/><path d="M285.417,141.667l0,66.667" style="fill:none;fill-rule:nonzero;stroke:#69ae5f;stroke-width:6.25px;"/><path d="M316.667,141.667l0,66.667" style="fill:none;fill-rule:nonzero;stroke:#69ae5f;stroke-width:6.25px;"/><path d="M347.917,141.667l0,66.667" style="fill:none;fill-rule:nonzero;stroke:#69ae5f;stroke-width:6.25px;"/></g><g><path d="M258.333,141.667l0,66.667" style="fill:none;fill-rule:nonzero;stroke:#457d3c;stroke-width:8.33px;"/><path d="M289.583,141.667l0,66.667" style="fill:none;fill-rule:nonzero;stroke:#457d3c;stroke-width:8.33px;"/><path d="M320.833,141.667l0,66.667" style="fill:none;fill-rule:nonzero;stroke:#457d3c;stroke-width:8.33px;"/><path d="M352.083,141.667l0,66.667" style="fill:none;fill-rule:nonzero;stroke:#457d3c;stroke-width:8.33px;"/></g></g><path d="M383.333,131.25l0,87.5c0,3.449 -2.801,6.25 -6.25,6.25l-145.833,0c-3.449,0 -6.25,-2.801 -6.25,-6.25l0,-87.5c0,-3.449 2.801,-6.25 6.25,-6.25l145.833,0c3.449,0 6.25,2.801 6.25,6.25Z" style="fill:none;stroke:#000;stroke-width:16.67px;stroke-linecap:butt;"/><path d="M-16.667,220.833l170.833,0l50,-50l237.5,0l-104.167,195.833c-6.944,8.333 -18.056,12.5 -33.333,12.5l-320.833,0l0,-158.333Z" style="fill:#fff;fill-rule:nonzero;"/><g><clipPath id="_clip1"><path d="M-16.667,220.833l170.833,0l50,-50l237.5,0l-104.167,195.833c-6.944,8.333 -18.056,12.5 -33.333,12.5l-320.833,0l0,-158.333Z"/></clipPath><g clip-path="url(#_clip1)"><path d="M-41.667,275l247.917,0" style="fill:none;fill-rule:nonzero;stroke:#3182b9;stroke-width:29.17px;"/><path d="M352.083,275l85.417,0" style="fill:none;fill-rule:nonzero;stroke:#3182b9;stroke-width:29.17px;"/></g></g><path d="M-16.667,220.833l170.833,0l50,-50l241.667,0l-100,179.167c-11.111,20.833 -22.222,29.167 -54.167,29.167l-308.333,0l0,-158.333Z" style="fill:none;fill-rule:nonzero;stroke:#000;stroke-width:16.67px;stroke-linejoin:round;"/><g><path d="M254.167,225l0,100" style="fill:none;fill-rule:nonzero;stroke:#000;stroke-width:16.67px;"/><path d="M304.167,225l0,100" style="fill:none;fill-rule:nonzero;stroke:#000;stroke-width:16.67px;"/><path d="M229.167,250l100,0" style="fill:none;fill-rule:nonzero;stroke:#000;stroke-width:16.67px;"/><path d="M229.167,300l100,0" style="fill:none;fill-rule:nonzero;stroke:#000;stroke-width:16.67px;"/></g></svg>